[Header]
FileType HTR
DataType HTRS
FileVersion 1
NumSegments 64
NumFrames 4
DataFrameRate 24
EulerRotationOrder ZYX
CalibrationUnits mm
RotationUnits Degrees
GlobalAxisofGravity Y
BoneLengthAxis Y
ScaleFactor 1.0
[SegmentNames&Hierarchy]
Hips	GLOBAL
Spine	Hips
Spine1	Spine
Spine2	Spine1
Neck	Spine2
Head	Neck
LeftEye	Head
RightEye	Head
LeftShoulder	Spine2
LeftArm	LeftShoulder
LeftForeArm	LeftArm
LeftHand	LeftForeArm
LeftHandThumb1	LeftHand
LeftHandThumb2	LeftHandThumb1
LeftHandThumb3	LeftHandThumb2
LeftHandThumb4	LeftHandThumb3
LeftHandIndex1	LeftHand
LeftHandIndex2	LeftHandIndex1
LeftHandIndex3	LeftHandIndex2
LeftHandIndex4	LeftHandIndex3
LeftHandMiddle1	LeftHand
LeftHandMiddle2	LeftHandMiddle1
LeftHandMiddle3	LeftHandMiddle2
LeftHandMiddle4	LeftHandMiddle3
LeftHandRing1	LeftHand
LeftHandRing2	LeftHandRing1
LeftHandRing3	LeftHandRing2
LeftHandRing4	LeftHandRing3
LeftHandPinky1	LeftHand
LeftHandPinky2	LeftHandPinky1
LeftHandPinky3	LeftHandPinky2
LeftHandPinky4	LeftHandPinky3
RightShoulder	Spine2
RightArm	RightShoulder
RightForeArm	RightArm
RightHand	RightForeArm
RightHandPinky1	RightHand
RightHandPinky2	RightHandPinky1
RightHandPinky3	RightHandPinky2
RightHandPinky4	RightHandPinky3
RightHandRing1	RightHand
RightHandRing2	RightHandRing1
RightHandRing3	RightHandRing2
RightHandRing4	RightHandRing3
RightHandMiddle1	RightHand
RightHandMiddle2	RightHandMiddle1
RightHandMiddle3	RightHandMiddle2
RightHandMiddle4	RightHandMiddle3
RightHandIndex1	RightHand
RightHandIndex2	RightHandIndex1
RightHandIndex3	RightHandIndex2
RightHandIndex4	RightHandIndex3
RightHandThumb1	RightHand
RightHandThumb2	RightHandThumb1
RightHandThumb3	RightHandThumb2
RightHandThumb4	RightHandThumb3
LeftUpLeg	Hips
LeftLeg	LeftUpLeg
LeftFoot	LeftLeg
LeftToeBase	LeftFoot
RightUpLeg	Hips
RightLeg	RightUpLeg
RightFoot	RightLeg
RightToeBase	RightFoot
[BasePosition]
Hips	0	0	0	0	0	0	1
Spine	0	0	0	0	0	0	1
Spine1	0	0	0	0	0	0	1
Spine2	0	0	0	0	0	0	1
Neck	0	0	0	0	0	0	1
Head	0	0	0	0	0	0	1
LeftEye	0	0	0	0	0	0	1
RightEye	0	0	0	0	0	0	1
LeftShoulder	0	0	0	0	0	0	1
LeftArm	0	0	0	0	0	0	1
LeftForeArm	0	0	0	0	0	0	1
LeftHand	0	0	0	0	0	0	1
LeftHandThumb1	0	0	0	0	0	0	1
LeftHandThumb2	0	0	0	0	0	0	1
LeftHandThumb3	0	0	0	0	0	0	1
LeftHandThumb4	0	0	0	0	0	0	1
LeftHandIndex1	0	0	0	0	0	0	1
LeftHandIndex2	0	0	0	0	0	0	1
LeftHandIndex3	0	0	0	0	0	0	1
LeftHandIndex4	0	0	0	0	0	0	1
LeftHandMiddle1	0	0	0	0	0	0	1
LeftHandMiddle2	0	0	0	0	0	0	1
LeftHandMiddle3	0	0	0	0	0	0	1
LeftHandMiddle4	0	0	0	0	0	0	1
LeftHandRing1	0	0	0	0	0	0	1
LeftHandRing2	0	0	0	0	0	0	1
LeftHandRing3	0	0	0	0	0	0	1
LeftHandRing4	0	0	0	0	0	0	1
LeftHandPinky1	0	0	0	0	0	0	1
LeftHandPinky2	0	0	0	0	0	0	1
LeftHandPinky3	0	0	0	0	0	0	1
LeftHandPinky4	0	0	0	0	0	0	1
RightShoulder	0	0	0	0	0	0	1
RightArm	0	0	0	0	0	0	1
RightForeArm	0	0	0	0	0	0	1
RightHand	0	0	0	0	0	0	1
RightHandPinky1	0	0	0	0	0	0	1
RightHandPinky2	0	0	0	0	0	0	1
RightHandPinky3	0	0	0	0	0	0	1
RightHandPinky4	0	0	0	0	0	0	1
RightHandRing1	0	0	0	0	0	0	1
RightHandRing2	0	0	0	0	0	0	1
RightHandRing3	0	0	0	0	0	0	1
RightHandRing4	0	0	0	0	0	0	1
RightHandMiddle1	0	0	0	0	0	0	1
RightHandMiddle2	0	0	0	0	0	0	1
RightHandMiddle3	0	0	0	0	0	0	1
RightHandMiddle4	0	0	0	0	0	0	1
RightHandIndex1	0	0	0	0	0	0	1
RightHandIndex2	0	0	0	0	0	0	1
RightHandIndex3	0	0	0	0	0	0	1
RightHandIndex4	0	0	0	0	0	0	1
RightHandThumb1	0	0	0	0	0	0	1
RightHandThumb2	0	0	0	0	0	0	1
RightHandThumb3	0	0	0	0	0	0	1
RightHandThumb4	0	0	0	0	0	0	1
LeftUpLeg	0	0	0	0	0	0	1
LeftLeg	0	0	0	0	0	0	1
LeftFoot	0	0	0	0	0	0	1
LeftToeBase	0	0	0	0	0	0	1
RightUpLeg	0	0	0	0	0	0	1
RightLeg	0	0	0	0	0	0	1
RightFoot	0	0	0	0	0	0	1
RightToeBase	0	0	0	0	0	0	1
[Hips]
251	361.918335	1007.65564	-444.2199402	-6.024532795	-34.48460388	-361.6526184	1.0
252	383.0424194	1007.60083	-424.5349121	-6.398842812	-39.71512985	-360.5203857	1.0
253	398.742218	1008.645264	-411.9229736	-8.762933731	-43.97325897	-357.4437256	1.0
254	406.6148376	1007.540405	-408.2666626	-13.67111492	-45.7274704	-352.5774841	1.0
[Spine]
251	0	101.8159943	1.315000057	19.24583817	-15.35223007	-6.276412487	1.0
252	0	101.8159943	1.315000057	19.02002716	-16.73281288	-6.527087212	1.0
253	0	101.8159943	1.315000057	19.290308	-16.2075634	-11.41416073	1.0
254	0	101.8159943	1.315000057	21.19591904	-14.40613461	-20.77602005	1.0
[Spine1]
251	0	100.8349991	-10.00800037	-0.9269917011	-1.995343685	-3.703775883	1.0
252	0	100.8349991	-10.00800037	-1.504598856	-2.151088476	-4.610191822	1.0
253	0	100.8349991	-10.00800037	-1.528752089	-2.214813232	-3.716784716	1.0
254	0	100.8349991	-10.00800037	-1.40722394	-2.257928848	-1.840059519	1.0
[Spine2]
251	0	91	-13.73399925	-1.006384611	-2.135071993	-3.601633787	1.0
252	0	91	-13.73399925	-1.614498496	-2.329324245	-4.480964661	1.0
253	0	91	-13.73399925	-1.597496986	-2.367778301	-3.588976383	1.0
254	0	91	-13.73399925	-1.384742856	-2.36528492	-1.719258904	1.0
[Neck]
251	0	166.7169952	-25.16200066	-3.125968695	6.010653973	-2.128184319	1.0
252	0	166.7169952	-25.16200066	-4.262392521	6.966334343	-3.52463603	1.0
253	0	166.7169952	-25.16200066	-5.506204128	7.582430363	-4.187260151	1.0
254	0	166.7169952	-25.16200066	-6.137302399	7.696213245	-3.884068012	1.0
[Head]
251	0	96.17900085	16.84999847	2.151607513	27.5208416	-2.028642416	1.0
252	0	96.17900085	16.84999847	-0.2347220927	30.86821938	-2.345231295	1.0
253	0	96.17900085	16.84999847	-0.6980615258	33.4613533	-2.492138147	1.0
254	0	96.17900085	16.84999847	-0.4617315233	34.36606979	-1.892146111	1.0
[LeftEye]
251	30.6760006	64.09500122	92.83599854	0	0	0	1.0
252	30.6760006	64.09500122	92.83599854	0	0	0	1.0
253	30.6760006	64.09500122	92.83599854	0	0	0	1.0
254	30.6760006	64.09500122	92.83599854	0	0	0	1.0
[RightEye]
251	-30.6760006	64.09500122	92.83499908	0	0	0	1.0
252	-30.6760006	64.09500122	92.83499908	0	0	0	1.0
253	-30.6760006	64.09500122	92.83499908	0	0	0	1.0
254	-30.6760006	64.09500122	92.83499908	0	0	0	1.0
[LeftShoulder]
251	45.70400238	109.4599991	-26.28000069	1.957106709	-2.607130766	-25.87785912	1.0
252	45.70400238	109.4599991	-26.28000069	2.254013777	-2.730165958	-30.12228394	1.0
253	45.70400238	109.4599991	-26.28000069	2.483238459	-3.114768267	-31.50151443	1.0
254	45.70400238	109.4599991	-26.28000069	2.536165476	-3.876694202	-28.30164337	1.0
[LeftArm]
251	105.923996	-5.24600029	-22.32099915	2.758612156	-0.8420497775	-11.91929913	1.0
252	105.923996	-5.24600029	-22.32099915	2.799486399	-6.641636372	-2.619215012	1.0
253	105.923996	-5.24600029	-22.32099915	1.610112906	-14.41623783	0.9328238964	1.0
254	105.923996	-5.24600029	-22.32099915	1.705219746	-23.36249542	-0.9794237018	1.0
[LeftForeArm]
251	278.414978	-0.0009999999311	0	6.747612133e-06	-66.70700836	-0.0002537526016	1.0
252	278.414978	-0.0009999999311	0	-5.49649485e-06	-66.77502441	-0.0002102791477	1.0
253	278.414978	-0.0009999999311	0	1.100020654e-05	-62.67922211	-0.0002201886819	1.0
254	278.414978	-0.0009999999311	0	-1.15246703e-05	-58.54919815	-0.0002117968106	1.0
[LeftHand]
251	283.2879944	0	0	34.4928093	16.66644859	21.35540199	1.0
252	283.2879944	0	0	32.75273514	15.14337254	20.56457329	1.0
253	283.2879944	0	0	32.46505737	13.70291901	20.75646973	1.0
254	283.2879944	0	0	32.59227753	12.65268612	20.86575127	1.0
[LeftHandThumb1]
251	24.6609993	-15.75	26.8239994	4.581858635	4.963612556	1.307728291	1.0
252	24.6609993	-15.75	26.8239994	3.710188389	4.661702156	1.637670517	1.0
253	24.6609993	-15.75	26.8239994	3.246542692	4.57060194	1.872929692	1.0
254	24.6609993	-15.75	26.8239994	3.0847857	4.743225574	2.059403419	1.0
[LeftHandThumb2]
251	32.29800034	-18.64699936	18.64699936	1.211425066	-0.187098816	-1.054779053	1.0
252	32.29800034	-18.64699936	18.64699936	1.211432815	-0.1870754659	-1.05478394	1.0
253	32.29800034	-18.64699936	18.64699936	1.211420536	-0.1871986836	-1.054784417	1.0
254	32.29800034	-18.64699936	18.64699936	1.211396694	-0.1873970032	-1.054785252	1.0
[LeftHandThumb3]
251	26.52600098	-15.31499958	15.31499958	-2.821436405	-1.983274221	3.227079153	1.0
252	26.52600098	-15.31499958	15.31499958	-2.83865118	-2.004608393	3.239276886	1.0
253	26.52600098	-15.31499958	15.31499958	-2.892836809	-2.092472315	3.250832081	1.0
254	26.52600098	-15.31499958	15.31499958	-2.969090939	-2.219569206	3.262712717	1.0
[LeftHandThumb4]
251	19.54599953	-11.28499985	11.28499985	0	0	0	1.0
252	19.54599953	-11.28499985	11.28499985	0	0	0	1.0
253	19.54599953	-11.28499985	11.28499985	0	0	0	1.0
254	19.54599953	-11.28499985	11.28499985	0	0	0	1.0
[LeftHandIndex1]
251	91.09299469	-5.170999527	22.60099792	-0.463114053	-4.243164539	-22.15749741	1.0
252	91.09299469	-5.170999527	22.60099792	-0.3683827221	-4.969391823	-20.14448547	1.0
253	91.09299469	-5.170999527	22.60099792	-0.2952972949	-5.657570362	-18.51477432	1.0
254	91.09299469	-5.170999527	22.60099792	-0.2385224849	-6.149977684	-17.12301636	1.0
[LeftHandIndex2]
251	36.76399994	0	0	-4.22416133e-06	0.002452643355	-0.02042188682	1.0
252	36.76399994	0	0	-2.439351192e-05	0.01900026947	-0.1581268609	1.0
253	36.76399994	0	0	-3.453154568e-05	0.02179370075	-0.1813116521	1.0
254	36.76399994	0	0	-8.761428944e-06	0.01283581182	-0.1067717522	1.0
[LeftHandIndex3]
251	28.83100128	0	0	-0.1010707542	1.175561786	-9.827707291	1.0
252	28.83100128	0	0	-0.09956334531	1.166826129	-9.75398922	1.0
253	28.83100128	0	0	-0.09749604017	1.154762149	-9.652010918	1.0
254	28.83100128	0	0	-0.09522651136	1.141318202	-9.538646698	1.0
[LeftHandIndex4]
251	23.92700005	0	0	0	0	0	1.0
252	23.92700005	0	0	0	0	0	1.0
253	23.92700005	0	0	0	0	0	1.0
254	23.92700005	0	0	0	0	0	1.0
[LeftHandMiddle1]
251	95.33399963	0	0	-0.6902496219	4.838507175	-25.94891548	1.0
252	95.33399963	0	0	-0.6149382591	4.436206341	-24.45928574	1.0
253	95.33399963	0	0	-0.5602887869	4.082073689	-23.32199478	1.0
254	95.33399963	0	0	-0.5150204897	3.830180645	-22.34106636	1.0
[LeftHandMiddle2]
251	36.98199844	0	0	-0.02603537962	0.5983772874	-4.983625412	1.0
252	36.98199844	0	0	-0.02235157602	0.5544318557	-4.616839886	1.0
253	36.98199844	0	0	-0.01917453669	0.5135873556	-4.276063919	1.0
254	36.98199844	0	0	-0.01599011943	0.4689439237	-3.903790712	1.0
[LeftHandMiddle3]
251	29.50900078	0	0	-0.1059653461	1.203502536	-10.06369019	1.0
252	29.50900078	0	0	-0.1106241941	1.229432583	-10.28308487	1.0
253	29.50900078	0	0	-0.1125410497	1.239936471	-10.37180614	1.0
254	29.50900078	0	0	-0.111525476	1.234414697	-10.32516003	1.0
[LeftHandMiddle4]
251	28.3390007	0	0	0	0	0	1.0
252	28.3390007	0	0	0	0	0	1.0
253	28.3390007	0	0	0	0	0	1.0
254	28.3390007	0	0	0	0	0	1.0
[LeftHandRing1]
251	91.04499817	-0.4390000105	-18.65100098	-1.019005775	14.03033161	-33.03213501	1.0
252	91.04499817	-0.4390000105	-18.65100098	-0.939083755	13.68595409	-31.74690628	1.0
253	91.04499817	-0.4390000105	-18.65100098	-0.8865761161	13.41786098	-30.86630058	1.0
254	91.04499817	-0.4390000105	-18.65100098	-0.8401731849	13.24489117	-30.08744431	1.0
[LeftHandRing2]
251	31.54000092	0	0	-0.0887561515	1.10212183	-9.20808506	1.0
252	31.54000092	0	0	-0.0799780041	1.046526551	-8.739590645	1.0
253	31.54000092	0	0	-0.07337648422	1.00271225	-8.370973587	1.0
254	31.54000092	0	0	-0.06641187519	0.9541329145	-7.962675095	1.0
[LeftHandRing3]
251	29.37700081	0	0	-0.09140446782	1.11835289	-9.344862938	1.0
252	29.37700081	0	0	-0.09606347233	1.146302342	-9.580796242	1.0
253	29.37700081	0	0	-0.09883186966	1.162572742	-9.71804142	1.0
254	29.37700081	0	0	-0.09939643741	1.165858865	-9.745761871	1.0
[LeftHandRing4]
251	26.47500038	0	0	0	0	0	1.0
252	26.47500038	0	0	0	0	0	1.0
253	26.47500038	0	0	0	0	0	1.0
254	26.47500038	0	0	0	0	0	1.0
[LeftHandPinky1]
251	80.77799988	-4.887000084	-38.06099701	-1.433193922	30.19814873	-44.393013	1.0
252	80.77799988	-4.887000084	-38.06099701	-1.31117022	29.91894531	-42.97914505	1.0
253	80.77799988	-4.887000084	-38.06099701	-1.239343047	29.75194168	-42.1282692	1.0
254	80.77799988	-4.887000084	-38.06099701	-1.17178762	29.66692352	-41.35186768	1.0
[LeftHandPinky2]
251	36	0	0	0.4910610616	-3.112337112	-8.066411018	1.0
252	36	0	0	0.4714354277	-3.15846014	-7.707655907	1.0
253	36	0	0	0.4552337825	-3.195929766	-7.415385723	1.0
254	36	0	0	0.4345972538	-3.24297142	-7.047715187	1.0
[LeftHandPinky3]
251	21.14200211	0	0	-0.1011899561	1.176228166	-9.833312988	1.0
252	21.14200211	0	0	-0.1272689402	1.317837	-11.03162193	1.0
253	21.14200211	0	0	-0.1449171603	1.405339122	-11.7745676	1.0
254	21.14200211	0	0	-0.1514258981	1.436196089	-12.03696918	1.0
[LeftHandPinky4]
251	19.75699997	0	0	0	0	0	1.0
252	19.75699997	0	0	0	0	0	1.0
253	19.75699997	0	0	0	0	0	1.0
254	19.75699997	0	0	0	0	0	1.0
[RightShoulder]
251	-45.70000076	109.4620056	-26.28000069	-0.4106488824	-5.865109921	10.00737667	1.0
252	-45.70000076	109.4620056	-26.28000069	-0.1785656661	-4.823020458	5.715947151	1.0
253	-45.70000076	109.4620056	-26.28000069	-0.1405287534	-5.204900265	-0.2415567935	1.0
254	-45.70000076	109.4620056	-26.28000069	-0.1156118959	-6.537046432	-5.309217453	1.0
[RightArm]
251	-105.9280014	-5.248000145	-22.32099915	19.09104347	-27.97426224	41.95488358	1.0
252	-105.9280014	-5.248000145	-22.32099915	13.36846638	-32.02750778	35.21043777	1.0
253	-105.9280014	-5.248000145	-22.32099915	5.907831192	-30.85638809	32.25045395	1.0
254	-105.9280014	-5.248000145	-22.32099915	2.70837903	-27.94169617	30.42523766	1.0
[RightForeArm]
251	-278.414978	0	0	4.850898222e-06	28.11958504	4.7705621e-06	1.0
252	-278.414978	0	0	3.680913778e-07	28.65712547	2.156418077e-06	1.0
253	-278.414978	0	0	-8.074559446e-06	25.71673584	-7.401989023e-06	1.0
254	-278.414978	0	0	-1.453864655e-07	22.42629242	-2.520682983e-06	1.0
[RightHand]
251	-283.2879944	0	0.0009999999311	-6.581132889	-16.38277245	-8.605636597	1.0
252	-283.2879944	0	0.0009999999311	-7.201270103	-14.9360981	-9.261006355	1.0
253	-283.2879944	0	0.0009999999311	-7.613875866	-13.57133102	-10.49406242	1.0
254	-283.2879944	0	0.0009999999311	-8.872343063	-12.94735241	-11.22443581	1.0
[RightHandPinky1]
251	-80.76699829	-4.885000229	-38.06000137	-0.5764844418	-20.5110321	28.74937439	1.0
252	-80.76699829	-4.885000229	-38.06000137	-0.4405902624	-20.97518539	26.85366821	1.0
253	-80.76699829	-4.885000229	-38.06000137	-0.3181186616	-21.06110573	24.84919167	1.0
254	-80.76699829	-4.885000229	-38.06000137	-0.2120441347	-20.83838272	22.79319191	1.0
[RightHandPinky2]
251	-36	0	0.0009999999311	-0.507219851	-2.606251955	22.03512001	1.0
252	-36	0	0.0009999999311	-0.4308066666	-2.408981323	20.28927422	1.0
253	-36	0	0.0009999999311	-0.396495074	-2.314011574	19.45631027	1.0
254	-36	0	0.0009999999311	-0.3689646721	-2.234570742	18.76281738	1.0
[RightHandPinky3]
251	-21.14200211	0	0	-0.003346076468	0.2160017043	-1.779509306	1.0
252	-21.14200211	0	0	-0.008367453702	0.3409879506	-2.809951782	1.0
253	-21.14200211	0	0	-0.01017087698	0.375998497	-3.098768234	1.0
254	-21.14200211	0	0	-0.008215448819	0.3379993141	-2.785417318	1.0
[RightHandPinky4]
251	-19.75699997	0	0	0	0	0	1.0
252	-19.75699997	0	0	0	0	0	1.0
253	-19.75699997	0	0	0	0	0	1.0
254	-19.75699997	0	0	0	0	0	1.0
[RightHandRing1]
251	-91.03599548	-0.4390000105	-18.65100098	-0.09544253349	-9.368834496	12.28224373	1.0
252	-91.03599548	-0.4390000105	-18.65100098	-0.05344129354	-9.923441887	11.08077049	1.0
253	-91.03599548	-0.4390000105	-18.65100098	-0.02200645022	-10.17548656	9.992240906	1.0
254	-91.03599548	-0.4390000105	-18.65100098	-0.004056798294	-10.20881844	9.23552227	1.0
[RightHandRing2]
251	-31.54000092	0	0	-0.003091624007	-0.2073192745	1.708025932	1.0
252	-31.54000092	0	0	-0.0004300733272	-0.07746780664	0.6381844878	1.0
253	-31.54000092	0	0	-8.469256863e-05	-0.03429840505	0.2826578319	1.0
254	-31.54000092	0	0	-0.0002154272515	-0.05467845872	0.4504007697	1.0
[RightHandRing3]
251	-29.37700081	0	0	0.06206953153	0.1616409421	-1.332867384	1.0
252	-29.37700081	0	0	0.3638601601	0.2621933222	-2.160561562	1.0
253	-29.37700081	0	0	0.4013764262	0.2969375253	-2.446651459	1.0
254	-29.37700081	0	0	0.2645548582	0.2782335877	-2.292583227	1.0
[RightHandRing4]
251	-26.47500038	0	0	0	0	0	1.0
252	-26.47500038	0	0	0	0	0	1.0
253	-26.47500038	0	0	0	0	0	1.0
254	-26.47500038	0	0	0	0	0	1.0
[RightHandMiddle1]
251	-95.32500458	0	0	-0.003322090954	-0.5076060891	1.760605454	1.0
252	-95.32500458	0	0	-0.0009257224738	-1.369989038	1.503035545	1.0
253	-95.32500458	0	0	0.000569257827	-1.93143189	1.574226141	1.0
254	-95.32500458	0	0	0.0001570307504	-2.255810499	1.967106342	1.0
[RightHandMiddle2]
251	-36.98199844	0	0	0	3.180554719e-15	3.180554719e-15	1.0
252	-36.98199844	0	0	-1.320360525e-06	3.100441063e-06	9.210190001e-06	1.0
253	-36.98199844	0	0	9.939233893e-16	-1.987846699e-16	-7.951386796e-16	1.0
254	-36.98199844	0	0	1.242404237e-16	7.847454242e-09	-1.063879154e-07	1.0
[RightHandMiddle3]
251	-29.50900078	0	0	-0.2112941593	0.2582430243	-2.144911051	1.0
252	-29.50900078	0	0	0.06476406753	0.2997731864	-2.486962795	1.0
253	-29.50900078	0	0	0.1283129752	0.3193365037	-2.648147345	1.0
254	-29.50900078	0	0	0.04305143654	0.3194253743	-2.64901495	1.0
[RightHandMiddle4]
251	-28.3390007	0	0.0009999999311	0	0	0	1.0
252	-28.3390007	0	0.0009999999311	0	0	0	1.0
253	-28.3390007	0	0.0009999999311	0	0	0	1.0
254	-28.3390007	0	0.0009999999311	0	0	0	1.0
[RightHandIndex1]
251	-91.08300018	-5.167999744	22.60099792	0.03209558874	7.661443233	-4.471031189	1.0
252	-91.08300018	-5.167999744	22.60099792	0.02070224285	6.28096199	-3.752774	1.0
253	-91.08300018	-5.167999744	22.60099792	0.02004428767	5.270897388	-2.424166441	1.0
254	-91.08300018	-5.167999744	22.60099792	0.02053155191	4.575072289	-0.7387968898	1.0
[RightHandIndex2]
251	-36.76399994	0	0	1.869140306e-06	7.540660363e-07	2.963942279e-05	1.0
252	-36.76399994	0	0	-8.237260772e-05	-0.03466432542	0.285528481	1.0
253	-36.76399994	0	0	-0.0006751099136	-0.09694825858	0.7985784411	1.0
254	-36.76399994	0	0	-0.0005750893033	-0.08953368664	0.7377508283	1.0
[RightHandIndex3]
251	-28.83100128	0	0	-0.007940640673	0.3321855366	-2.737464905	1.0
252	-28.83100128	0	0	-0.009252551943	0.3586730361	-2.955849171	1.0
253	-28.83100128	0	0	-0.01080237981	0.3874832988	-3.193527699	1.0
254	-28.83100128	0	0	-0.01225663628	0.4127479494	-3.402054787	1.0
[RightHandIndex4]
251	-23.92700005	0	0	0	0	0	1.0
252	-23.92700005	0	0	0	0	0	1.0
253	-23.92700005	0	0	0	0	0	1.0
254	-23.92700005	0	0	0	0	0	1.0
[RightHandThumb1]
251	-24.64799881	-15.72700024	26.82600021	5.624923229	-12.77554989	-11.18008518	1.0
252	-24.64799881	-15.72700024	26.82600021	5.718226433	-12.91423512	-11.31297302	1.0
253	-24.64799881	-15.72700024	26.82600021	5.658622265	-13.0202055	-11.60865498	1.0
254	-24.64799881	-15.72700024	26.82600021	5.481461048	-13.09101772	-12.00477314	1.0
[RightHandThumb2]
251	-32.29800034	-18.64699936	18.64699936	2.060276985	0.3369410634	1.680865765	1.0
252	-32.29800034	-18.64699936	18.64699936	2.060275555	0.3369259834	1.680869579	1.0
253	-32.29800034	-18.64699936	18.64699936	2.060275793	0.3369344175	1.680874348	1.0
254	-32.29800034	-18.64699936	18.64699936	2.060277462	0.3369270563	1.680875421	1.0
[RightHandThumb3]
251	-26.52600098	-15.31399918	15.31399918	-4.970919132	5.846975327	-3.360897064	1.0
252	-26.52600098	-15.31399918	15.31399918	-5.078021526	6.009598255	-3.402871847	1.0
253	-26.52600098	-15.31399918	15.31399918	-5.17753458	6.160326004	-3.44199276	1.0
254	-26.52600098	-15.31399918	15.31399918	-5.274872303	6.307262421	-3.480217218	1.0
[RightHandThumb4]
251	-19.54599953	-11.28499985	11.28499985	0	0	0	1.0
252	-19.54599953	-11.28499985	11.28499985	0	0	0	1.0
253	-19.54599953	-11.28499985	11.28499985	0	0	0	1.0
254	-19.54599953	-11.28499985	11.28499985	0	0	0	1.0
[LeftUpLeg]
251	82.07800293	-67.51699829	-15.99599934	-10.80655956	13.36762047	9.693178177	1.0
252	82.07800293	-67.51699829	-15.99599934	-4.581675053	13.75946331	5.548092842	1.0
253	82.07800293	-67.51699829	-15.99599934	-2.323601961	8.464529037	1.675383329	1.0
254	82.07800293	-67.51699829	-15.99599934	-1.706477761	8.862915993	-1.075373888	1.0
[LeftLeg]
251	0	-443.7049866	2.845999956	40.99922562	6.514248371	-3.753922939	1.0
252	0	-443.7049866	2.845999956	32.36287308	9.464094162	-0.8254029751	1.0
253	0	-443.7049866	2.845999956	27.98049164	12.01170158	-3.320975542	1.0
254	0	-443.7049866	2.845999956	29.23787308	9.358275414	-6.361169338	1.0
[LeftFoot]
251	0	-444.2789917	-29.8219986	-1.474493742	3.04684782	-0.9579775929	1.0
252	0	-444.2789917	-29.8219986	-14.73150349	3.662205696	0.2797984183	1.0
253	0	-444.2789917	-29.8219986	-15.11074638	12.5229578	-0.3125394583	1.0
254	0	-444.2789917	-29.8219986	-10.909132	16.24296951	-0.4241680801	1.0
[LeftToeBase]
251	0	-87.28699493	107.1060028	-19.33520126	-0.2595730126	-0.877197206	1.0
252	0	-87.28699493	107.1060028	-6.677499771	2.26152406e-06	-1.279714752e-06	1.0
253	0	-87.28699493	107.1060028	-5.851257801	-8.261241646e-07	1.580865501e-07	1.0
254	0	-87.28699493	107.1060028	-10.82817364	-4.174194146e-06	-3.848980579e-10	1.0
[RightUpLeg]
251	-82.07800293	-67.51699829	-15.99599934	-8.393473625	5.785673141	-0.5767228603	1.0
252	-82.07800293	-67.51699829	-15.99599934	-11.06458378	-0.5648189783	-1.278595805	1.0
253	-82.07800293	-67.51699829	-15.99599934	-12.58761406	-5.326236725	-0.6730288863	1.0
254	-82.07800293	-67.51699829	-15.99599934	-12.90888405	1.245961547	-3.050838947	1.0
[RightLeg]
251	0	-443.7049866	2.861999989	40.47502518	-9.886852264	-3.881935835	1.0
252	0	-443.7049866	2.861999989	39.64109802	-8.15145874	-5.953093529	1.0
253	0	-443.7049866	2.861999989	34.01276779	-6.98235321	-8.611141205	1.0
254	0	-443.7049866	2.861999989	34.43090439	-6.842143536	-8.782809258	1.0
[RightFoot]
251	0	-444.2770081	-29.83799934	-10.93592358	-7.972894669	13.55732059	1.0
252	0	-444.2770081	-29.83799934	-15.33373833	-5.598702908	15.20120811	1.0
253	0	-444.2770081	-29.83799934	-18.90132141	3.798975229	8.859508514	1.0
254	0	-444.2770081	-29.83799934	-18.79189301	2.88024497	3.156988144	1.0
[RightToeBase]
251	0	-87.28699493	107.1060028	-7.889977932	-0.4340618551	-4.892515659	1.0
252	0	-87.28699493	107.1060028	1.683490992	0.2574528456	-3.79189086	1.0
253	0	-87.28699493	107.1060028	6.265137672	-1.477928345e-05	-2.848863005e-06	1.0
254	0	-87.28699493	107.1060028	7.078033447	1.884538278e-06	1.820058742e-06	1.0
[EndOfFile]
